<?xml version="1.0" encoding="UTF-8"?>
<svg version="1.1" xmlns="http://www.w3.org/2000/svg" width="1200" height="1200">
<path d="M0 0 C396 0 792 0 1200 0 C1200 396 1200 792 1200 1200 C804 1200 408 1200 0 1200 C0 804 0 408 0 0 Z " fill="#000000" transform="translate(0,0)"/>
<path d="M0 0 C0.9384375 0.22300781 1.876875 0.44601562 2.84375 0.67578125 C44.35324317 11.1172124 80.20878778 33.80846706 111 63 C111.75410156 63.7115625 112.50820313 64.423125 113.28515625 65.15625 C118.67323652 70.38365193 123.34620006 76.1186535 128 82 C129.17369141 83.44826172 129.17369141 83.44826172 130.37109375 84.92578125 C150.60088907 110.39913951 165.70909757 140.23865077 173.45336914 171.86206055 C173.84710794 173.40202064 174.27206875 174.93411815 174.71655273 176.46020508 C191.12203063 233.0712388 179.30107621 296.96652703 152 348 C151.38640625 349.15628906 150.7728125 350.31257813 150.140625 351.50390625 C142.05746312 366.18386347 132.08855266 379.47311321 121 392 C120.21753906 392.89332031 119.43507813 393.78664063 118.62890625 394.70703125 C110.39059025 404.0019077 101.75458614 412.30587457 92 420 C91.03578125 420.78117187 90.0715625 421.56234375 89.078125 422.3671875 C57.8016271 447.21374548 19.59306328 464.2319524 -19.9375 470.125 C-21.01451172 470.29386719 -22.09152344 470.46273438 -23.20117188 470.63671875 C-72.7463099 478.16781693 -123.75593445 470.55153992 -168.12792969 446.98681641 C-169.99367942 446.00333174 -171.87298831 445.05180144 -173.7578125 444.10546875 C-194.37179237 433.63056878 -212.3183193 418.88136018 -229 403 C-229.72574219 402.31550781 -230.45148438 401.63101562 -231.19921875 400.92578125 C-236.6210451 395.67438559 -241.32095306 389.91325297 -246 384 C-247.17369141 382.55173828 -247.17369141 382.55173828 -248.37109375 381.07421875 C-255.6829534 371.86712508 -261.96068816 362.08006529 -268 352 C-268.56847656 351.05350586 -268.56847656 351.05350586 -269.1484375 350.08789062 C-299.46282021 298.74717855 -306.93824911 232.25064151 -292.62182617 174.79663086 C-281.24385335 131.77317326 -259.49671697 95.16791959 -229 63 C-227.93265625 61.86884766 -227.93265625 61.86884766 -226.84375 60.71484375 C-221.61634807 55.32676348 -215.8813465 50.65379994 -210 46 C-209.03449219 45.21753906 -208.06898438 44.43507813 -207.07421875 43.62890625 C-181.56469182 23.37038741 -151.68225665 8.26083326 -120.01611328 0.50585938 C-118.06208858 0.01557853 -116.12231266 -0.53044187 -114.18359375 -1.078125 C-77.52513367 -11.15450172 -36.58860869 -9.26054662 0 0 Z " fill="#29BCC2" transform="translate(659,259)"/>
<path d="M0 0 C1.3008252 0.00090637 1.3008252 0.00090637 2.62792969 0.00183105 C23.55885189 0.04142905 43.51487998 2.14923942 64.0625 6.1875 C65.19051025 6.40744629 65.19051025 6.40744629 66.34130859 6.63183594 C116.50231616 16.69424793 162.97084391 42.60259743 201.0625 76.1875 C201.58231445 76.64415039 202.10212891 77.10080078 202.63769531 77.57128906 C215.89062673 89.29284304 228.08195505 102.13932011 238.67041016 116.32421875 C239.62949116 117.60792731 240.5957582 118.88628791 241.56787109 120.16015625 C271.64142859 159.6217555 289.8616281 205.49762392 298.0625 254.1875 C298.31241699 255.61425049 298.31241699 255.61425049 298.56738281 257.06982422 C311.27368171 331.6897348 289.72620619 412.16929247 246.48583984 473.42089844 C229.05894617 497.62030274 208.67217916 519.85679458 184.83349609 537.84912109 C183.06382636 539.18649764 181.30755501 540.54028041 179.55078125 541.89453125 C144.51129505 568.57444012 102.16571724 586.65905595 59.0625 595.1875 C58.26980713 595.34613525 57.47711426 595.50477051 56.66040039 595.66821289 C21.44700164 602.47872556 -15.6821719 602.45443233 -50.9375 596.1875 C-52.00629395 596.00026367 -53.07508789 595.81302734 -54.17626953 595.62011719 C-126.51645746 582.59415892 -193.76265304 540.97624045 -237.9375 482.1875 C-238.68700928 481.20668457 -238.68700928 481.20668457 -239.45166016 480.20605469 C-272.94391654 436.25203152 -291.1530004 384.60600692 -297.9375 330.1875 C-298.11168457 328.95990967 -298.28586914 327.73231934 -298.46533203 326.4675293 C-299.03151733 321.91259366 -299.09927647 317.40197481 -299.10546875 312.81640625 C-299.10879715 311.93581039 -299.11212555 311.05521454 -299.11555481 310.14793396 C-299.12059299 308.28979001 -299.1229641 306.4316371 -299.12280273 304.57348633 C-299.1249696 301.78906505 -299.14310441 299.0050535 -299.16210938 296.22070312 C-299.19743557 285.04605595 -298.4967436 274.24758921 -296.9375 263.1875 C-296.69735261 261.22955266 -296.45998278 259.27126072 -296.2265625 257.3125 C-294.79893926 246.06636862 -292.97051915 235.11470865 -289.9375 224.1875 C-289.6787207 223.24986816 -289.41994141 222.31223633 -289.15332031 221.34619141 C-276.41349436 175.99385054 -254.02974706 135.45201148 -222.9375 100.1875 C-222.48084961 99.66768555 -222.02419922 99.14787109 -221.55371094 98.61230469 C-209.83215696 85.35937327 -196.98567989 73.16804495 -182.80078125 62.57958984 C-181.51707269 61.62050884 -180.23871209 60.6542418 -178.96484375 59.68212891 C-138.28129269 28.67732588 -90.74018509 10.22895959 -40.4375 2.5 C-39.66140381 2.38052002 -38.88530762 2.26104004 -38.08569336 2.13793945 C-25.3960098 0.28133886 -12.79938964 -0.01644696 0 0 Z M-157.9375 120.1875 C-158.8346875 120.97253906 -159.731875 121.75757813 -160.65625 122.56640625 C-169.94315429 130.80710064 -178.24582476 139.43602021 -185.9375 149.1875 C-186.71867187 150.15171875 -187.49984375 151.1159375 -188.3046875 152.109375 C-208.56751239 177.61593412 -223.67676136 207.50562973 -231.43164062 239.17138672 C-231.92192147 241.12541142 -232.46794187 243.06518734 -233.015625 245.00390625 C-242.89940985 280.96170561 -241.86365257 323.33986796 -231.9375 359.1875 C-231.6787207 360.13737793 -231.41994141 361.08725586 -231.15332031 362.06591797 C-221.05467646 398.49520666 -203.9863667 430.88945903 -178.9375 459.1875 C-178.15503906 460.08082031 -177.37257813 460.97414063 -176.56640625 461.89453125 C-168.32809025 471.1894077 -159.69208614 479.49337457 -149.9375 487.1875 C-148.97328125 487.96867187 -148.0090625 488.74984375 -147.015625 489.5546875 C-121.48502357 509.83661198 -91.92841181 524.4337575 -60.37573242 532.54711914 C-58.69563167 532.98838321 -57.02143149 533.45253427 -55.3527832 533.93530273 C0.35165416 549.9582088 65.60478552 538.82142147 115.9453125 511.58984375 C136.27352783 500.26098095 154.20985585 486.1646078 171.0625 470.1875 C171.81660156 469.4759375 172.57070313 468.764375 173.34765625 468.03125 C178.73573652 462.80384807 183.40870006 457.0688465 188.0625 451.1875 C188.84496094 450.22199219 189.62742187 449.25648438 190.43359375 448.26171875 C197.7454534 439.05462508 204.02318816 429.26756529 210.0625 419.1875 C210.44148438 418.55650391 210.82046875 417.92550781 211.2109375 417.27539062 C241.74224569 365.56729161 249.04034663 299.71700291 234.68432617 241.85229492 C223.30155031 198.89992731 201.50765142 162.30102827 171.0625 130.1875 C170.3509375 129.43339844 169.639375 128.67929687 168.90625 127.90234375 C163.67884807 122.51426348 157.9438465 117.84129994 152.0625 113.1875 C150.61423828 112.01380859 150.61423828 112.01380859 149.13671875 110.81640625 C128.15607582 94.15452336 105.08977671 82.43671096 80.0625 73.1875 C78.62922363 72.65310303 78.62922363 72.65310303 77.16699219 72.10791016 C60.54091686 65.9674371 43.57385209 63.51143915 26.0625 61.1875 C25.3214502 61.08074951 24.58040039 60.97399902 23.81689453 60.86401367 C-41.65337752 52.25441624 -109.07692613 77.22555462 -157.9375 120.1875 Z " fill="#156165" transform="translate(598.9375,191.8125)"/>
<path d="M0 0 C0 23.1 0 46.2 0 70 C4.95 70 9.9 70 15 70 C48.15157215 75.10024187 78.20340341 91.22020366 98.3984375 118.328125 C118.20819149 145.82941673 125.72904947 177.90774275 121.5390625 211.6015625 C120.88066905 215.15688713 120.03812647 218.53696681 119 222 C118.80132324 222.69029297 118.60264648 223.38058594 118.39794922 224.09179688 C108.81258294 256.97642426 88.63015945 283.04827826 58.79296875 300 C52.76011484 303.27395528 46.46305079 305.7201536 40 308 C38.89785156 308.39058594 37.79570313 308.78117187 36.66015625 309.18359375 C24.29189042 313.27636535 13.07229511 314 0 314 C0 337.1 0 360.2 0 384 C-8.94182806 384 -17.22992462 383.90166276 -26 382.75 C-27.55726807 382.5497522 -27.55726807 382.5497522 -29.14599609 382.34545898 C-37.07770889 381.26127248 -44.38438269 379.47839915 -52 377 C-54.24959465 376.41510539 -56.49960847 375.83182105 -58.75 375.25 C-67.56165913 372.7197247 -75.75884325 368.96999834 -84 365 C-85.0818457 364.47962158 -85.0818457 364.47962158 -86.18554688 363.94873047 C-111.81038463 351.43413901 -134.60919602 332.58119831 -152 310 C-152.39687012 309.4848584 -152.79374023 308.9697168 -153.20263672 308.43896484 C-171.34111083 284.64525843 -184.82063568 255.68289638 -189.125 226 C-189.29386719 224.88882813 -189.46273438 223.77765625 -189.63671875 222.6328125 C-193.75013731 195.10205835 -193.69194164 166.66774926 -185 140 C-184.61942807 138.63731779 -184.24611142 137.27259482 -183.87890625 135.90625 C-181.40085436 126.77837996 -178.26613579 118.36056385 -173.97998047 109.92871094 C-173.31163857 108.61333948 -172.65215659 107.29343777 -172.00048828 105.96972656 C-159.34656643 80.27715554 -140.70368341 57.48513531 -118 40 C-117.4848584 39.60312988 -116.9697168 39.20625977 -116.43896484 38.79736328 C-106.8508862 31.48815667 -96.63841031 25.63705543 -86 20 C-84.93910156 19.4225 -83.87820313 18.845 -82.78515625 18.25 C-69.27173885 11.13182129 -54.85018657 7.1999356 -40 4 C-38.41655482 3.62547255 -36.83319683 3.25057589 -35.25 2.875 C-33.83545113 2.57322957 -32.41858185 2.28220456 -31 2 C-30.07832031 1.814375 -29.15664063 1.62875 -28.20703125 1.4375 C-18.45532069 -0.30690537 -10.32628404 0 0 0 Z " fill="#B8F9EC" transform="translate(600,300)"/>
<path d="M0 0 C0 19.8 0 39.6 0 60 C-6.27 60.33 -12.54 60.66 -19 61 C-71.54094133 66.24000809 -119.33729492 86.11138898 -159 121 C-159.90878906 121.79664063 -160.81757813 122.59328125 -161.75390625 123.4140625 C-170.68802383 131.35246927 -178.58019297 139.62304854 -186 149 C-186.78246094 149.96550781 -187.56492187 150.93101562 -188.37109375 151.92578125 C-208.62961259 177.43530818 -223.73916674 207.31774335 -231.49414062 238.98388672 C-231.98442147 240.93791142 -232.53044187 242.87768734 -233.078125 244.81640625 C-242.96190985 280.77420561 -241.92615257 323.15236796 -232 359 C-231.7412207 359.94987793 -231.48244141 360.89975586 -231.21582031 361.87841797 C-221.11771995 398.3057461 -204.0504963 430.70501171 -179 459 C-178.2059375 459.90492188 -177.411875 460.80984375 -176.59375 461.7421875 C-168.65738799 470.68418443 -160.38016377 478.57765112 -151 486 C-150.03449219 486.78246094 -149.06898438 487.56492187 -148.07421875 488.37109375 C-122.54497538 508.64527051 -92.9879759 523.25995458 -61.43505859 531.359375 C-59.76478898 531.79879624 -58.10108982 532.263749 -56.44384766 532.75 C-49.03597863 534.90324585 -41.63943286 536.10368545 -34 537.125 C-32.82566406 537.29386719 -31.65132812 537.46273437 -30.44140625 537.63671875 C-20.22882208 539.03284167 -10.3964024 539.45282093 0 540 C0 559.8 0 579.6 0 600 C-25.54079657 600 -25.54079657 600 -36.875 598.3125 C-38.13965088 598.13243408 -39.40430176 597.95236816 -40.70727539 597.7668457 C-118.90246589 586.25612817 -191.28099999 545.50536785 -239 482 C-239.74950928 481.01918457 -239.74950928 481.01918457 -240.51416016 480.01855469 C-274.00641654 436.06453152 -292.2155004 384.41850692 -299 330 C-299.17418457 328.77240967 -299.34836914 327.54481934 -299.52783203 326.2800293 C-300.09401733 321.72509366 -300.16177647 317.21447481 -300.16796875 312.62890625 C-300.17129715 311.74831039 -300.17462555 310.86771454 -300.17805481 309.96043396 C-300.18309299 308.10229001 -300.1854641 306.2441371 -300.18530273 304.38598633 C-300.1874696 301.60156505 -300.20560441 298.8175535 -300.22460938 296.03320312 C-300.25993557 284.85855595 -299.5592436 274.06008921 -298 263 C-297.75985261 261.04205266 -297.52248278 259.08376072 -297.2890625 257.125 C-295.86143926 245.87886862 -294.03301915 234.92720865 -291 224 C-290.7412207 223.06236816 -290.48244141 222.12473633 -290.21582031 221.15869141 C-277.47599436 175.80635054 -255.09224706 135.26451148 -224 100 C-223.54334961 99.48018555 -223.08669922 98.96037109 -222.61621094 98.42480469 C-210.89465696 85.17187327 -198.04817989 72.98054495 -183.86328125 62.39208984 C-182.57957269 61.43300884 -181.30121209 60.4667418 -180.02734375 59.49462891 C-128.0851724 19.90966768 -64.93129061 0 0 0 Z " fill="#397B6E" transform="translate(600,192)"/>
<path d="M0 0 C0 23.1 0 46.2 0 70 C-5.94 70.33 -11.88 70.66 -18 71 C-20.64 71.66 -23.28 72.32 -26 73 C-27.7634375 73.4021875 -27.7634375 73.4021875 -29.5625 73.8125 C-60.67036242 81.77173824 -87.66102823 100.71085152 -104.41210938 128.328125 C-110.29063195 138.47666044 -114.82218931 148.7104094 -118 160 C-118.23203125 160.77601563 -118.4640625 161.55203125 -118.703125 162.3515625 C-126.64513658 190.82934687 -120.96835817 223.94151388 -107.6875 249.8125 C-91.65617315 277.94765714 -67.85166606 297.95808516 -37 308 C-36.17242188 308.350625 -35.34484375 308.70125 -34.4921875 309.0625 C-31.60639547 310.1480644 -28.86011246 310.61198338 -25.8125 311.0625 C-20.20035149 311.89982425 -20.20035149 311.89982425 -18 313 C-12.06 313.33 -6.12 313.66 0 314 C0 337.1 0 360.2 0 384 C-8.94182806 384 -17.22992462 383.90166276 -26 382.75 C-27.55726807 382.5497522 -27.55726807 382.5497522 -29.14599609 382.34545898 C-37.07770889 381.26127248 -44.38438269 379.47839915 -52 377 C-54.24959465 376.41510539 -56.49960847 375.83182105 -58.75 375.25 C-67.56165913 372.7197247 -75.75884325 368.96999834 -84 365 C-85.0818457 364.47962158 -85.0818457 364.47962158 -86.18554688 363.94873047 C-111.81038463 351.43413901 -134.60919602 332.58119831 -152 310 C-152.39687012 309.4848584 -152.79374023 308.9697168 -153.20263672 308.43896484 C-171.34111083 284.64525843 -184.82063568 255.68289638 -189.125 226 C-189.29386719 224.88882813 -189.46273438 223.77765625 -189.63671875 222.6328125 C-193.75013731 195.10205835 -193.69194164 166.66774926 -185 140 C-184.61942807 138.63731779 -184.24611142 137.27259482 -183.87890625 135.90625 C-181.40085436 126.77837996 -178.26613579 118.36056385 -173.97998047 109.92871094 C-173.31163857 108.61333948 -172.65215659 107.29343777 -172.00048828 105.96972656 C-159.34656643 80.27715554 -140.70368341 57.48513531 -118 40 C-117.4848584 39.60312988 -116.9697168 39.20625977 -116.43896484 38.79736328 C-106.8508862 31.48815667 -96.63841031 25.63705543 -86 20 C-84.93910156 19.4225 -83.87820313 18.845 -82.78515625 18.25 C-69.27173885 11.13182129 -54.85018657 7.1999356 -40 4 C-38.41655482 3.62547255 -36.83319683 3.25057589 -35.25 2.875 C-33.83545113 2.57322957 -32.41858185 2.28220456 -31 2 C-30.07832031 1.814375 -29.15664063 1.62875 -28.20703125 1.4375 C-18.45532069 -0.30690537 -10.32628404 0 0 0 Z " fill="#6EECD4" transform="translate(600,300)"/>
<path d="M0 0 C0 15.84 0 31.68 0 48 C-5.94 48.33 -11.88 48.66 -18 49 C-24.5396165 49.86809069 -30.98251877 50.85856356 -37.3984375 52.38671875 C-39.48017795 52.87745937 -41.57092641 53.32992804 -43.6640625 53.76953125 C-91.70612815 64.07281715 -134.31978014 95.00150124 -161 136 C-164.2085098 141.21919328 -167.1257486 146.59165338 -170 152 C-170.32097656 152.59280762 -170.64195312 153.18561523 -170.97265625 153.79638672 C-178.9112753 168.51521755 -183.4820597 183.74233416 -187 200 C-187.375 201.5 -187.75 203 -188.125 204.5 C-193.12735834 228.08254645 -191.65446855 252.34929978 -188 276 C-187.89316895 276.70157227 -187.78633789 277.40314453 -187.67626953 278.12597656 C-185.90527168 289.14745747 -181.89678877 299.58644411 -178 310 C-177.59910156 311.08152344 -177.19820313 312.16304687 -176.78515625 313.27734375 C-164.78072695 343.73698108 -143.91773223 371.06574422 -118 391 C-117.4234668 391.44714355 -116.84693359 391.89428711 -116.25292969 392.35498047 C-94.34611213 409.15712885 -69.00048994 421.0224945 -41.9675293 426.57910156 C-40.66387854 426.85798156 -39.36530229 427.16183143 -38.07348633 427.49121094 C-30.47075904 429.38176479 -22.72077772 429.92384793 -14.9375 430.625 C-7.5434375 431.305625 -7.5434375 431.305625 0 432 C0 447.84 0 463.68 0 480 C-22.36750982 480 -22.36750982 480 -33.0625 478.4375 C-34.28710938 478.26186523 -35.51171875 478.08623047 -36.7734375 477.90527344 C-62.08310203 474.0280205 -86.51945279 465.99354507 -109.12792969 453.98681641 C-110.99367942 453.00333174 -112.87298831 452.05180144 -114.7578125 451.10546875 C-135.37179237 440.63056878 -153.3183193 425.88136018 -170 410 C-170.72574219 409.31550781 -171.45148438 408.63101562 -172.19921875 407.92578125 C-177.6210451 402.67438559 -182.32095306 396.91325297 -187 391 C-188.17369141 389.55173828 -188.17369141 389.55173828 -189.37109375 388.07421875 C-196.6829534 378.86712508 -202.96068816 369.08006529 -209 359 C-209.56847656 358.05350586 -209.56847656 358.05350586 -210.1484375 357.08789062 C-240.46282021 305.74717855 -247.93824911 239.25064151 -233.62182617 181.79663086 C-222.24385335 138.77317326 -200.49671697 102.16791959 -170 70 C-168.93265625 68.86884766 -168.93265625 68.86884766 -167.84375 67.71484375 C-162.61634807 62.32676348 -156.8813465 57.65379994 -151 53 C-150.03449219 52.21753906 -149.06898438 51.43507813 -148.07421875 50.62890625 C-122.56469182 30.37038741 -92.68225665 15.26083326 -61.01611328 7.50585938 C-59.06208858 7.01557853 -57.12231266 6.46955813 -55.18359375 5.921875 C-47.25322483 3.74204026 -39.3412556 2.32999339 -31.1875 1.25 C-29.80280518 1.05833252 -29.80280518 1.05833252 -28.39013672 0.86279297 C-18.78286667 -0.30866459 -9.90119368 0 0 0 Z " fill="#5BC5B0" transform="translate(600,252)"/>
<path d="M0 0 C9.76556307 0 18.80789036 0.01372151 28.375 1.25 C29.97045654 1.44916016 29.97045654 1.44916016 31.59814453 1.65234375 C40.88539488 2.87071028 49.92528695 4.70319763 59 7 C59.9384375 7.22300781 60.876875 7.44601562 61.84375 7.67578125 C103.35324317 18.1172124 139.20878778 40.80846706 170 70 C170.75410156 70.7115625 171.50820313 71.423125 172.28515625 72.15625 C177.67323652 77.38365193 182.34620006 83.1186535 187 89 C187.78246094 89.96550781 188.56492187 90.93101562 189.37109375 91.92578125 C209.60088907 117.39913951 224.70909757 147.23865077 232.45336914 178.86206055 C232.84710794 180.40202064 233.27206875 181.93411815 233.71655273 183.46020508 C250.12203063 240.0712388 238.30107621 303.96652703 211 355 C210.38640625 356.15628906 209.7728125 357.31257813 209.140625 358.50390625 C201.05746312 373.18386347 191.08855266 386.47311321 180 399 C179.21753906 399.89332031 178.43507813 400.78664063 177.62890625 401.70703125 C169.39059025 411.0019077 160.75458614 419.30587457 151 427 C150.03578125 427.78117187 149.0715625 428.56234375 148.078125 429.3671875 C116.8016271 454.21374548 78.59306328 471.2319524 39.0625 477.125 C37.98548828 477.29386719 36.90847656 477.46273438 35.79882812 477.63671875 C23.74989128 479.46821484 12.22536099 480 0 480 C0 464.16 0 448.32 0 432 C3.856875 431.7525 7.71375 431.505 11.6875 431.25 C37.24438489 429.36313176 60.90161165 423.1555043 84 412 C84.67981934 411.67306152 85.35963867 411.34612305 86.06005859 411.00927734 C111.32100992 398.68015424 133.86233817 380.2817112 151 358 C151.67071533 357.1352002 151.67071533 357.1352002 152.35498047 356.25292969 C173.71377802 328.40510507 186.10965668 295.76230744 190 261 C190.09877441 260.17274414 190.19754883 259.34548828 190.29931641 258.49316406 C195.67592103 210.34247044 181.19695149 159.88501491 151 122 C139.99264949 108.41765668 128.09791462 96.36189169 114 86 C113.43216797 85.58250488 112.86433594 85.16500977 112.27929688 84.73486328 C78.01354087 59.94038254 41.58505335 51.6160916 0 48 C0 32.16 0 16.32 0 0 Z " fill="#229CA2" transform="translate(600,252)"/>
<path d="M0 0 C112.49705252 0 112.49705252 0 137.18359375 24.12890625 C153.92823035 41.02107269 163.17597984 63.15789082 163.27880859 87.04272461 C163.26930176 88.08050049 163.25979492 89.11827637 163.25 90.1875 C163.24178223 91.28392822 163.23356445 92.38035645 163.22509766 93.51000977 C162.8843683 118.40706732 156.83101242 141.04468505 140 160 C139.40832031 160.68578125 138.81664062 161.3715625 138.20703125 162.078125 C124.50207215 176.92272889 105.24584782 183.15083044 86 187 C57.62 187 29.24 187 0 187 C0 125.29 0 63.58 0 0 Z " fill="#FDFDFD" transform="translate(335,817)"/>
<path d="M0 0 C14.85 0 29.7 0 45 0 C45.0093457 3.79483887 45.01869141 7.58967773 45.02832031 11.49951172 C45.06212186 24.05247963 45.11748884 36.60527526 45.18390274 49.15810966 C45.22363616 56.76719368 45.25605745 64.37617513 45.27099609 71.98535156 C45.28404231 78.62099551 45.31108215 85.25641324 45.35461307 91.89192975 C45.37716168 95.40229207 45.39291469 98.91237607 45.39188385 102.42281723 C45.39099346 106.35095725 45.42135871 110.2785327 45.45410156 114.20654297 C45.4490712 115.358134 45.44404083 116.50972504 45.43885803 117.69621277 C45.57654614 128.40763024 48.45366084 136.29317044 55.8515625 144.08984375 C58.95616767 146.85011998 62.11871337 148.57587772 66 150 C66.9384375 150.35707031 67.876875 150.71414063 68.84375 151.08203125 C78.86934146 153.99789015 89.97099355 152.13635152 99.0546875 147.23828125 C106.80923028 142.30215663 110.30004621 135.65095913 113 127 C113.64827002 122.64292189 113.69258525 118.37915972 113.65942383 113.97949219 C113.66990753 112.73903641 113.68039124 111.49858063 113.69119263 110.22053528 C113.7148515 106.85932371 113.7169203 103.49946925 113.70889878 100.13827801 C113.70574892 96.61082989 113.73087989 93.08357833 113.75285339 89.55621338 C113.79013371 82.8948329 113.80243182 76.23365649 113.8054778 69.57218194 C113.81018614 61.98065689 113.843166 54.38933406 113.87837565 46.79789877 C113.95010066 31.19857396 113.9830628 15.59949514 114 0 C128.85 0 143.7 0 159 0 C159.06799074 16.39553195 159.12313997 32.79094163 159.15543652 49.18657589 C159.1708378 56.80111208 159.19179661 64.41555379 159.22631836 72.0300293 C159.25642904 78.67477936 159.27562382 85.31946092 159.28226548 91.96427733 C159.28614149 95.47544158 159.29510567 98.98641006 159.31719017 102.49751091 C159.54646993 140.43858497 159.54646993 140.43858497 152.5 153.3125 C151.99049805 154.28485596 151.99049805 154.28485596 151.47070312 155.27685547 C142.12792875 172.20126627 125.87317797 182.97103313 107.625 188.375 C98.33055265 190.92598197 89.39348033 191.18218609 79.8125 191.1875 C78.09836914 191.20586914 78.09836914 191.20586914 76.34960938 191.22460938 C53.98212215 191.2625418 33.93550764 184.88615198 17.7578125 168.93359375 C3.81600891 154.47915339 -0.17212505 136.67461593 -0.11352539 117.27172852 C-0.11367142 116.00274216 -0.11381744 114.7337558 -0.1139679 113.42631531 C-0.11425363 109.96401599 -0.10839309 106.50175164 -0.10139394 103.03946042 C-0.09512313 99.41465004 -0.09455366 95.78983877 -0.09336853 92.1650238 C-0.09026618 85.30871796 -0.08206761 78.45242815 -0.07201904 71.59612936 C-0.06082381 63.78716982 -0.05533887 55.9782095 -0.05032361 48.16924393 C-0.03988404 32.11281844 -0.02155223 16.05641501 0 0 Z " fill="#FBFBFB" transform="translate(786,816)"/>
<path d="M0 0 C33.11243938 0 63.24563302 11.95119238 87.125 35.03125 C111.77782583 59.8845053 122.27643157 91.58879281 122.24658203 126.00317383 C122.1634437 135.08859888 121.62115888 143.25620963 119 152 C118.80132324 152.69029297 118.60264648 153.38058594 118.39794922 154.09179688 C108.81258294 186.97642426 88.63015945 213.04827826 58.79296875 230 C52.76011484 233.27395528 46.46305079 235.7201536 40 238 C38.89785156 238.39058594 37.79570313 238.78117188 36.66015625 239.18359375 C24.29189042 243.27636535 13.07229511 244 0 244 C0 224.2 0 204.4 0 184 C7.425 183.01 7.425 183.01 15 182 C31.64811951 177.80655858 44.50821791 168.5621369 53.39453125 153.94140625 C61.15611825 139.72127241 63.84407671 122.94634935 59.875 107 C54.39003005 90.74823717 44.91520738 78.49124636 30 70 C20.10545366 65.40650459 10.83740496 63.20415611 0 62 C0 41.54 0 21.08 0 0 Z " fill="#94E0E3" transform="translate(600,370)"/>
<path d="M0 0 C7.05919704 -0.45917145 14.11452588 -0.77259659 21.18530273 -0.98876953 C23.58520243 -1.07890509 25.98412363 -1.2014782 28.38061523 -1.35791016 C47.70061899 -2.58674432 47.70061899 -2.58674432 53.09506226 1.64254761 C56.69515689 5.86848264 58.91986929 10.66523533 61.03189087 15.76269531 C62.33138926 18.76584212 64.03418109 21.40124218 65.85546875 24.11328125 C66.41153809 24.98243164 66.96760742 25.85158203 67.54052734 26.74707031 C68.35577881 28.01695801 68.35577881 28.01695801 69.1875 29.3125 C70.37169894 31.16758256 71.5552952 33.02304999 72.73828125 34.87890625 C73.29467285 35.7517627 73.85106445 36.62461914 74.42431641 37.52392578 C76.5881578 40.92424797 78.74353586 44.32928409 80.875 47.75 C81.49117188 48.73484375 82.10734375 49.7196875 82.7421875 50.734375 C84 53 84 53 84 55 C84.66 55 85.32 55 86 55 C86.27062256 54.27449951 86.54124512 53.54899902 86.82006836 52.80151367 C87.9748206 50.05978349 89.30127911 47.69444915 90.87890625 45.17578125 C91.74866089 43.77392578 91.74866089 43.77392578 92.63598633 42.34375 C93.95265929 40.2720466 95.29083715 38.21389566 96.6472168 36.16796875 C100.42132503 30.42086561 103.48777305 25.076277 106.015625 18.63671875 C112.6367838 3.47209625 112.6367838 3.47209625 120 0 C135.8654269 -3.99010299 153.90935488 -1.57819164 170 0 C168.31319298 5.16507932 165.24194456 9.33017731 162.19921875 13.76953125 C161.61473969 14.63093216 161.03026062 15.49233307 160.42807007 16.37983704 C159.17146201 18.23121887 157.91282754 20.08122659 156.65237427 21.92999268 C153.34389559 26.78359282 150.05090756 31.64767322 146.7578125 36.51171875 C146.09775711 37.48608887 145.43770172 38.46045898 144.75764465 39.46435547 C137.91312907 49.58142936 131.20301006 59.78410925 124.52416992 70.01098633 C124.12629776 70.61991226 123.7284256 71.2288382 123.3184967 71.85621643 C122.20874888 73.55828392 121.10449066 75.26392683 120.00048828 76.96972656 C118.72798963 78.89726541 117.42218431 80.80352266 116.07373047 82.67871094 C115.51186035 83.4627832 114.94999023 84.24685547 114.37109375 85.0546875 C113.88439209 85.70679199 113.39769043 86.35889648 112.89624023 87.03076172 C111.66331576 89.73976983 112.11366266 91.19937239 113 94 C113.94499886 95.89932152 113.94499886 95.89932152 115.1953125 97.65234375 C115.88620972 98.67569824 115.88620972 98.67569824 116.59106445 99.71972656 C117.09726318 100.4515918 117.60346191 101.18345703 118.125 101.9375 C118.65633545 102.71963867 119.1876709 103.50177734 119.73510742 104.30761719 C120.88439021 105.99710437 122.03744607 107.68402976 123.19384766 109.36865234 C125.00524755 112.00764505 126.80663397 114.65321073 128.60546875 117.30078125 C131.75550742 121.93385512 134.91476167 126.56056117 138.07666016 131.18554688 C141.22167898 135.78770186 144.36061169 140.39400315 147.5 145 C151.35385955 150.65344352 155.20868598 156.30622125 159.06640625 161.95703125 C159.73542969 162.93736328 160.40445313 163.91769531 161.09375 164.92773438 C162.36288974 166.78737663 163.63239335 168.64677063 164.90234375 170.50585938 C166.6051858 173.00146901 168.30403544 175.49971214 170 178 C170.58249512 178.85770996 171.16499023 179.71541992 171.76513672 180.59912109 C172.31572754 181.41590332 172.86631836 182.23268555 173.43359375 183.07421875 C173.92786865 183.80600342 174.42214355 184.53778809 174.93139648 185.29174805 C176 187 176 187 176 188 C168.67447613 188.48494584 161.35311315 188.81561985 154.01513672 189.04370117 C151.52495838 189.13880654 149.03582926 189.26816169 146.54931641 189.43334961 C126.53189084 190.72906674 126.53189084 190.72906674 120.78475952 186.28829956 C116.91547107 181.84898059 114.47026022 176.77890672 112.11358643 171.42037964 C110.53702012 167.99371341 108.5563123 165.06241142 106.42578125 161.94921875 C105.74249756 160.90749512 105.05921387 159.86577148 104.35522461 158.79248047 C103.68112549 157.76783691 103.00702637 156.74319336 102.3125 155.6875 C100.86157185 153.47552754 99.41104762 151.26329008 97.9609375 149.05078125 C97.2812793 148.0138916 96.60162109 146.97700195 95.90136719 145.90869141 C92.23197421 140.29529285 88.60775615 134.65317915 85 129 C82.71906887 131.149785 80.97383821 133.36103841 79.24780273 135.97387695 C78.71972519 136.76933426 78.19164764 137.56479156 77.64756775 138.38435364 C76.79915062 139.67329781 76.79915062 139.67329781 75.93359375 140.98828125 C75.34006607 141.88306686 74.74653839 142.77785248 74.13502502 143.69975281 C72.23253873 146.56849135 70.33461527 149.44020725 68.4375 152.3125 C67.18722502 154.20402467 65.9365778 156.09530335 64.68554688 157.98632812 C64.07563904 158.90994141 63.4657312 159.83355469 62.83734131 160.78515625 C61.61104909 162.62709456 60.37310683 164.46133028 59.12359619 166.28759766 C56.41646523 170.25285008 53.86180788 174.11225358 51.78613281 178.44726562 C49.78126424 182.3858007 47.9319589 185.758692 44 188 C35.51290209 190.20226729 26.53672354 189.31316463 17.875 188.875 C15.46372209 188.80470885 13.05224782 188.74084199 10.640625 188.68359375 C4.75610587 188.52996241 -1.12103188 188.29635322 -7 188 C-2.92442684 181.50808208 1.22640691 175.10838189 5.6875 168.875 C6.73573163 167.39977834 7.78390714 165.9245168 8.83203125 164.44921875 C9.35877441 163.70978027 9.88551758 162.9703418 10.42822266 162.20849609 C12.91957247 158.70791355 15.39755744 155.19793251 17.875 151.6875 C18.36444092 150.99446777 18.85388184 150.30143555 19.3581543 149.58740234 C23.84950778 143.22350106 28.31440777 136.84119729 32.77758789 130.45751953 C36.10565044 125.69946247 39.44265177 120.94800926 42.79638672 116.20800781 C43.79394883 114.79632088 44.78913459 113.38295119 45.78173828 111.96777344 C48.0838429 108.68756849 50.4103806 105.4354129 52.81640625 102.23046875 C53.4664563 101.34572876 53.4664563 101.34572876 54.12963867 100.44311523 C55.29064073 98.86468958 56.46889378 97.29899314 57.6484375 95.734375 C59.33767669 93.10776279 59.33767669 93.10776279 58.24917603 90.58648682 C57.09326724 88.19311489 55.8615786 86.07420029 54.36474609 83.88183594 C53.83537949 83.10113235 53.30601288 82.32042877 52.76060486 81.5160675 C52.18733963 80.68060898 51.6140744 79.84515045 51.0234375 78.984375 C50.42555923 78.1042424 49.82768097 77.2241098 49.21168518 76.31730652 C47.93246734 74.43444816 46.65130347 72.55291074 45.36837769 70.6725769 C42.0350664 65.78546562 38.71763505 60.88762888 35.40234375 55.98828125 C34.42724602 54.54751976 34.42724602 54.54751976 33.43244934 53.07765198 C27.234747 43.90122506 21.25349314 34.60395949 15.33984375 25.2421875 C11.50288225 19.17626241 7.50550351 13.2195965 3.44897461 7.29858398 C0 2.2122726 0 2.2122726 0 0 Z " fill="#FCFCFC" transform="translate(145,816)"/>
<path d="M0 0 C13.78688987 10.98686788 21.97881546 25.47110919 25.24755859 42.72021484 C25.63237904 46.85703461 25.67807397 50.94285809 25.62255859 55.09521484 C25.60950684 56.7321228 25.60950684 56.7321228 25.59619141 58.40209961 C25.44886222 66.52150793 24.69984473 73.93687189 22.24755859 81.72021484 C21.99232422 82.57873047 21.73708984 83.43724609 21.47412109 84.32177734 C16.46715448 98.7914515 5.25743741 110.86471565 -7.89697266 118.37255859 C-26.77212067 127.28080218 -50.80329805 129.45276832 -70.75244141 122.72021484 C-80.87487603 118.77179988 -89.20692331 113.62970969 -96.75244141 105.72021484 C-97.39568359 105.08470703 -98.03892578 104.44919922 -98.70166016 103.79443359 C-112.12986053 89.72540804 -115.32789822 69.42151595 -115.02587891 50.71240234 C-114.33499111 32.89296959 -106.35815467 15.88170975 -93.51416016 3.57568359 C-67.86844442 -18.37637751 -27.33921682 -19.9654743 0 0 Z " fill="#FDFDFD" transform="translate(625.75244140625,881.27978515625)"/>
<path d="M0 0 C12.68498806 9.28319805 21.41423621 23.53440747 24 39 C25.5285703 56.75590136 23.00578177 73.04449246 11.44921875 87.2421875 C0.54812097 99.926568 -13.63484853 108.7662084 -30.57250977 110.22094727 C-49.91995214 111.05673974 -65.17877511 107.61231254 -80.25 94.75 C-91.27905501 84.34155098 -99.76018497 70.63240708 -100.43359375 55.1953125 C-100.45714732 53.17201167 -100.45792635 51.14833482 -100.4375 49.125 C-100.42920166 48.06506836 -100.42090332 47.00513672 -100.41235352 45.91308594 C-100.24826055 38.32860409 -99.49471011 31.83478703 -96 25 C-95.49082031 23.99066406 -94.98164062 22.98132813 -94.45703125 21.94140625 C-86.60622045 7.55124732 -74.61038412 -3.51975877 -59 -9 C-58.23171875 -9.29648437 -57.4634375 -9.59296875 -56.671875 -9.8984375 C-37.57471728 -16.28368349 -16.11061163 -11.38483222 0 0 Z " fill="#DBFCF5" transform="translate(638,444)"/>
<path d="M0 0 C14.85 0 29.7 0 45 0 C45 61.71 45 123.42 45 187 C30.15 187 15.3 187 0 187 C0 125.29 0 63.58 0 0 Z " fill="#FFFFFF" transform="translate(969,817)"/>
<path d="M0 0 C44.72469636 0 44.72469636 0 58.17578125 11.9296875 C70.23205924 24.32653832 72.35335544 39.31507489 72.3125 55.8125 C72.32861328 57.10220703 72.34472656 58.39191406 72.36132812 59.72070312 C72.3686817 74.25871188 69.16821726 88.25704257 59.77734375 99.7109375 C43.38365967 115.75808842 21.70665649 112 0 112 C0 75.04 0 38.08 0 0 Z " fill="#000000" transform="translate(380,854)"/>
<path d="M0 0 C6.58421472 0 11.26083332 0.20181082 17.3125 2.0625 C18.04597656 2.28510498 18.77945313 2.50770996 19.53515625 2.73706055 C36.85123407 8.2864548 48.77249926 19.83124864 57.3828125 35.51953125 C63.62661829 48.72402424 64.33348593 66.31055993 60.08984375 80.21484375 C53.43720603 97.21602903 41.78295372 110.43461774 24.9375 117.8125 C16.22016162 121.19700941 9.62606576 122 0 122 C0 81.74 0 41.48 0 0 Z " fill="#C9EFF1" transform="translate(600,432)"/>
<path d="M0 0 C8.14846717 4.12281899 12.24493683 11.10511073 15.45727539 19.37963867 C16.86701295 24.07011518 16.92889218 28.60468313 16.85546875 33.47265625 C16.84741211 34.47796387 16.83935547 35.48327148 16.83105469 36.51904297 C16.55387661 46.87314699 14.23763349 55.20216495 7.29296875 63.16015625 C1.18612847 67.80666516 -4.4195329 69.71904175 -12.05078125 69.53515625 C-19.04475738 68.54777138 -25.16065065 64.81722688 -29.4609375 59.25 C-36.17303407 47.99303554 -37.21526302 33.92531789 -35.24609375 21.17578125 C-32.82554811 12.00618484 -26.90900616 5.05186113 -18.9453125 0.0546875 C-13.23595793 -2.22706153 -5.7964385 -1.79831786 0 0 Z " fill="#020202" transform="translate(590.70703125,903.83984375)"/>
<path d="M0 0 C28.38 0 56.76 0 86 0 C86 10.89 86 21.78 86 33 C57.62 33 29.24 33 0 33 C0 22.11 0 11.22 0 0 Z " fill="#FFFFFF" transform="translate(673,915)"/>
</svg>
